<mxfile host="app.diagrams.net" agent="Mozilla/5.0 (Windows NT 10.0; Win64; x64) AppleWebKit/537.36 (KHTML, like Gecko) Chrome/138.0.0.0 Safari/537.36" version="27.2.0">
  <diagram name="Page-1" id="ckZhCHkz_OswaYyGe-G6">
    <mxGraphModel dx="872" dy="431" grid="1" gridSize="10" guides="1" tooltips="1" connect="1" arrows="1" fold="1" page="1" pageScale="1" pageWidth="850" pageHeight="1100" math="0" shadow="0">
      <root>
        <mxCell id="0" />
        <mxCell id="1" parent="0" />
        <mxCell id="5bGGQAV5520wHcCI5uB3-2" value="&amp;nbsp; &amp;nbsp; &amp;nbsp;&amp;nbsp;&lt;b&gt;&lt;font style=&quot;font-size: 16px;&quot;&gt;&amp;nbsp;LAST FEW MATCHES&lt;/font&gt;&lt;/b&gt;&amp;nbsp;" style="rounded=0;whiteSpace=wrap;html=1;align=left;" vertex="1" parent="1">
          <mxGeometry x="110" y="40" width="680" height="390" as="geometry" />
        </mxCell>
        <mxCell id="5bGGQAV5520wHcCI5uB3-3" value="TEAM DASHBOARD" style="text;html=1;align=center;verticalAlign=middle;resizable=0;points=[];autosize=1;strokeColor=none;fillColor=none;" vertex="1" parent="1">
          <mxGeometry x="110" y="10" width="140" height="30" as="geometry" />
        </mxCell>
        <mxCell id="5bGGQAV5520wHcCI5uB3-5" value="LATEST MATCH" style="rounded=0;whiteSpace=wrap;html=1;" vertex="1" parent="1">
          <mxGeometry x="150" y="110" width="270" height="60" as="geometry" />
        </mxCell>
        <mxCell id="5bGGQAV5520wHcCI5uB3-6" value="WIN/TOTAL MATCHES PIE CHART" style="ellipse;whiteSpace=wrap;html=1;aspect=fixed;" vertex="1" parent="1">
          <mxGeometry x="640" y="80" width="120" height="120" as="geometry" />
        </mxCell>
        <mxCell id="5bGGQAV5520wHcCI5uB3-8" value="" style="rounded=0;whiteSpace=wrap;html=1;" vertex="1" parent="1">
          <mxGeometry x="150" y="250" width="140" height="120" as="geometry" />
        </mxCell>
        <mxCell id="5bGGQAV5520wHcCI5uB3-10" value="" style="rounded=0;whiteSpace=wrap;html=1;" vertex="1" parent="1">
          <mxGeometry x="320" y="250" width="140" height="120" as="geometry" />
        </mxCell>
        <mxCell id="5bGGQAV5520wHcCI5uB3-11" value="" style="rounded=0;whiteSpace=wrap;html=1;" vertex="1" parent="1">
          <mxGeometry x="490" y="250" width="140" height="120" as="geometry" />
        </mxCell>
        <mxCell id="5bGGQAV5520wHcCI5uB3-16" value="" style="triangle;whiteSpace=wrap;html=1;" vertex="1" parent="1">
          <mxGeometry x="750" y="310" width="20" height="40" as="geometry" />
        </mxCell>
        <mxCell id="5bGGQAV5520wHcCI5uB3-22" value="" style="endArrow=none;html=1;rounded=0;" edge="1" parent="1">
          <mxGeometry width="50" height="50" relative="1" as="geometry">
            <mxPoint x="150" y="80" as="sourcePoint" />
            <mxPoint x="180" y="80" as="targetPoint" />
            <Array as="points">
              <mxPoint x="400" y="80" />
              <mxPoint x="150" y="80" />
            </Array>
          </mxGeometry>
        </mxCell>
        <mxCell id="5bGGQAV5520wHcCI5uB3-23" value="&lt;font style=&quot;font-size: 25px;&quot;&gt;TEAM NAME&lt;/font&gt;" style="edgeLabel;html=1;align=center;verticalAlign=middle;resizable=0;points=[];" vertex="1" connectable="0" parent="5bGGQAV5520wHcCI5uB3-22">
          <mxGeometry x="0.4264" y="-2" relative="1" as="geometry">
            <mxPoint as="offset" />
          </mxGeometry>
        </mxCell>
        <mxCell id="5bGGQAV5520wHcCI5uB3-28" value="" style="endArrow=none;html=1;rounded=0;" edge="1" parent="1">
          <mxGeometry width="50" height="50" relative="1" as="geometry">
            <mxPoint x="740" y="330" as="sourcePoint" />
            <mxPoint x="670" y="310" as="targetPoint" />
            <Array as="points">
              <mxPoint x="690" y="328.13" />
              <mxPoint x="670" y="310" />
            </Array>
          </mxGeometry>
        </mxCell>
        <mxCell id="5bGGQAV5520wHcCI5uB3-29" value="&lt;font style=&quot;font-size: 14px;&quot;&gt;MORE&lt;/font&gt;" style="edgeLabel;html=1;align=center;verticalAlign=middle;resizable=0;points=[];" vertex="1" connectable="0" parent="5bGGQAV5520wHcCI5uB3-28">
          <mxGeometry x="-0.4272" y="-1" relative="1" as="geometry">
            <mxPoint as="offset" />
          </mxGeometry>
        </mxCell>
      </root>
    </mxGraphModel>
  </diagram>
</mxfile>
